<?xml version="1.0" encoding="UTF-8" standalone="no"?><!DOCTYPE svg PUBLIC "-//W3C//DTD SVG 1.1//EN"
    "http://www.w3.org/Graphics/SVG/1.1/DTD/svg11.dtd">
<svg width="100%" height="100%" viewBox="0 0 406 244" version="1.1"
    xmlns="http://www.w3.org/2000/svg" xml:space="preserve"
    style="fill-rule:evenodd;clip-rule:evenodd;stroke-linejoin:round;stroke-miterlimit:2;">
    <g transform="matrix(1,0,0,1,-1096.93,-481.05)">
        <g transform="matrix(1,0,0,1,1096.56,173.441)">
            <g transform="matrix(125,0,0,125,0,395.5)">
                <path
                    d="M0.689,-0.012C0.689,-0.006 0.685,-0.002 0.677,-0C0.667,0.003 0.637,0.004 0.586,0.004C0.539,0.004 0.509,0.003 0.496,-0C0.485,-0.002 0.478,-0.01 0.475,-0.022C0.464,-0.069 0.455,-0.094 0.449,-0.097C0.444,-0.099 0.4,-0.101 0.318,-0.101C0.263,-0.101 0.234,-0.099 0.23,-0.096C0.224,-0.091 0.218,-0.074 0.211,-0.044C0.205,-0.017 0.198,-0.002 0.189,-0C0.178,0.003 0.141,0.004 0.078,0.004C0.028,0.004 0.003,-0.001 0.003,-0.01C0.003,-0.019 0.04,-0.123 0.113,-0.322C0.193,-0.538 0.236,-0.657 0.243,-0.678C0.247,-0.691 0.252,-0.697 0.257,-0.697C0.266,-0.697 0.279,-0.696 0.298,-0.694C0.316,-0.693 0.33,-0.692 0.339,-0.692C0.348,-0.692 0.361,-0.692 0.378,-0.694C0.395,-0.695 0.408,-0.695 0.416,-0.695C0.422,-0.695 0.428,-0.69 0.433,-0.679C0.449,-0.645 0.496,-0.528 0.573,-0.328C0.65,-0.126 0.689,-0.021 0.689,-0.012ZM0.343,-0.457C0.336,-0.443 0.324,-0.412 0.308,-0.364C0.291,-0.313 0.282,-0.283 0.282,-0.274C0.282,-0.269 0.292,-0.265 0.311,-0.265C0.321,-0.264 0.338,-0.264 0.361,-0.264C0.382,-0.264 0.394,-0.266 0.396,-0.271C0.397,-0.273 0.397,-0.275 0.397,-0.278C0.397,-0.289 0.39,-0.319 0.375,-0.367C0.36,-0.414 0.35,-0.444 0.343,-0.457Z"
                    style="fill-rule:nonzero;" />
            </g>
            <g transform="matrix(125,0,0,125,86.731,395.5)">
                <path
                    d="M0.773,-0.015C0.773,-0.005 0.768,-0 0.759,-0L0.586,-0C0.576,-0 0.572,-0.006 0.572,-0.017C0.572,-0.05 0.573,-0.099 0.575,-0.165C0.578,-0.231 0.579,-0.28 0.579,-0.313C0.579,-0.322 0.578,-0.327 0.575,-0.328C0.571,-0.326 0.549,-0.276 0.509,-0.177C0.486,-0.119 0.462,-0.062 0.439,-0.004C0.436,0.004 0.432,0.008 0.427,0.009C0.425,0.01 0.419,0.01 0.407,0.01C0.39,0.01 0.38,0.007 0.377,-0C0.359,-0.036 0.336,-0.088 0.308,-0.156C0.277,-0.229 0.254,-0.281 0.239,-0.313C0.238,-0.315 0.237,-0.316 0.234,-0.318C0.232,-0.315 0.231,-0.311 0.231,-0.304C0.231,-0.272 0.232,-0.224 0.233,-0.161C0.235,-0.097 0.236,-0.049 0.236,-0.017C0.236,-0.006 0.231,-0 0.222,-0L0.059,-0C0.053,-0 0.049,-0.001 0.047,-0.003C0.046,-0.005 0.045,-0.009 0.045,-0.014C0.045,-0.05 0.047,-0.103 0.05,-0.174C0.053,-0.245 0.055,-0.299 0.055,-0.334C0.055,-0.372 0.054,-0.443 0.05,-0.546C0.05,-0.573 0.049,-0.614 0.046,-0.667L0.045,-0.675C0.045,-0.682 0.052,-0.685 0.066,-0.685C0.084,-0.685 0.111,-0.686 0.146,-0.687C0.182,-0.688 0.209,-0.688 0.227,-0.688C0.231,-0.688 0.236,-0.682 0.242,-0.668L0.385,-0.355C0.395,-0.334 0.403,-0.323 0.41,-0.323C0.414,-0.323 0.421,-0.335 0.433,-0.36C0.466,-0.428 0.515,-0.531 0.579,-0.669C0.585,-0.682 0.591,-0.688 0.597,-0.688C0.607,-0.688 0.621,-0.688 0.64,-0.687C0.659,-0.686 0.673,-0.685 0.683,-0.685C0.691,-0.685 0.704,-0.686 0.72,-0.688C0.737,-0.689 0.75,-0.69 0.758,-0.69C0.768,-0.69 0.772,-0.686 0.772,-0.678C0.772,-0.64 0.771,-0.582 0.768,-0.506C0.766,-0.43 0.764,-0.372 0.764,-0.334C0.764,-0.299 0.766,-0.245 0.769,-0.174C0.771,-0.103 0.773,-0.05 0.773,-0.015Z"
                    style="fill-rule:nonzero;" />
            </g>
            <g transform="matrix(125,0,0,125,189.087,395.5)">
                <path
                    d="M0.243,-0.361C0.243,-0.322 0.244,-0.265 0.246,-0.188C0.248,-0.11 0.249,-0.053 0.249,-0.014C0.249,-0.008 0.248,-0.004 0.245,-0.002C0.244,-0.002 0.24,-0.001 0.232,-0C0.211,0.003 0.182,0.004 0.147,0.004C0.099,0.004 0.069,0.003 0.056,-0C0.047,-0.002 0.042,-0.007 0.042,-0.015C0.042,-0.01 0.043,-0.039 0.046,-0.101C0.052,-0.233 0.055,-0.319 0.055,-0.361C0.055,-0.396 0.054,-0.448 0.052,-0.518C0.049,-0.587 0.048,-0.639 0.048,-0.674C0.048,-0.681 0.052,-0.685 0.06,-0.685C0.07,-0.685 0.085,-0.685 0.105,-0.684C0.126,-0.683 0.141,-0.682 0.151,-0.682C0.161,-0.682 0.176,-0.683 0.196,-0.684C0.215,-0.685 0.23,-0.685 0.24,-0.685C0.25,-0.685 0.254,-0.681 0.254,-0.674C0.254,-0.639 0.253,-0.587 0.249,-0.518C0.245,-0.448 0.243,-0.396 0.243,-0.361Z"
                    style="fill-rule:nonzero;" />
            </g>
            <g transform="matrix(125,0,0,125,226.318,395.5)">
                <path
                    d="M0.688,-0.016C0.688,-0.007 0.684,-0.002 0.674,-0.002C0.668,-0.002 0.65,-0.006 0.62,-0.013C0.591,-0.02 0.573,-0.025 0.566,-0.028C0.498,-0.001 0.433,0.012 0.37,0.012C0.27,0.012 0.187,-0.021 0.123,-0.088C0.059,-0.154 0.027,-0.238 0.027,-0.339C0.027,-0.442 0.058,-0.528 0.12,-0.596C0.183,-0.666 0.266,-0.701 0.368,-0.701C0.418,-0.701 0.464,-0.692 0.508,-0.673C0.555,-0.652 0.592,-0.623 0.619,-0.585C0.625,-0.577 0.627,-0.572 0.627,-0.568C0.627,-0.558 0.613,-0.535 0.584,-0.498C0.555,-0.462 0.536,-0.444 0.527,-0.444C0.525,-0.444 0.518,-0.451 0.505,-0.464C0.489,-0.48 0.473,-0.492 0.456,-0.501C0.431,-0.514 0.404,-0.521 0.374,-0.521C0.325,-0.521 0.286,-0.503 0.258,-0.466C0.231,-0.433 0.218,-0.391 0.218,-0.341C0.218,-0.288 0.232,-0.246 0.259,-0.215C0.288,-0.183 0.328,-0.167 0.381,-0.167C0.414,-0.167 0.451,-0.175 0.492,-0.192C0.491,-0.203 0.488,-0.23 0.483,-0.274C0.479,-0.308 0.477,-0.335 0.477,-0.356C0.477,-0.362 0.479,-0.366 0.483,-0.367C0.485,-0.368 0.488,-0.368 0.491,-0.368C0.501,-0.368 0.515,-0.367 0.534,-0.365C0.553,-0.364 0.567,-0.363 0.577,-0.363C0.588,-0.363 0.603,-0.364 0.624,-0.365C0.645,-0.366 0.66,-0.367 0.671,-0.367C0.679,-0.367 0.683,-0.362 0.683,-0.351C0.683,-0.335 0.682,-0.312 0.68,-0.28C0.679,-0.249 0.678,-0.225 0.678,-0.209C0.678,-0.167 0.681,-0.105 0.687,-0.021L0.688,-0.016Z"
                    style="fill-rule:nonzero;" />
            </g>
            <g transform="matrix(125,0,0,125,315.186,395.5)">
                <path
                    d="M0.723,-0.342C0.723,-0.24 0.691,-0.155 0.626,-0.086C0.56,-0.017 0.476,0.018 0.375,0.018C0.274,0.018 0.191,-0.017 0.125,-0.087C0.059,-0.156 0.027,-0.241 0.027,-0.342C0.027,-0.443 0.059,-0.528 0.125,-0.597C0.191,-0.668 0.274,-0.703 0.375,-0.703C0.475,-0.703 0.558,-0.668 0.625,-0.597C0.69,-0.528 0.723,-0.442 0.723,-0.342ZM0.538,-0.343C0.538,-0.392 0.523,-0.433 0.494,-0.467C0.463,-0.503 0.423,-0.521 0.375,-0.521C0.329,-0.521 0.29,-0.502 0.258,-0.465C0.227,-0.43 0.212,-0.388 0.212,-0.342C0.212,-0.292 0.226,-0.25 0.255,-0.217C0.286,-0.182 0.326,-0.165 0.375,-0.165C0.421,-0.165 0.46,-0.183 0.492,-0.22C0.523,-0.255 0.538,-0.296 0.538,-0.343Z"
                    style="fill-rule:nonzero;" />
            </g>
        </g>
        <g transform="matrix(1,0,0,1,1071.56,156.441)">
            <g transform="matrix(208.333,0,0,208.333,17,564.833)">
                <path
                    d="M0.622,-0.211C0.622,-0.151 0.603,-0.101 0.566,-0.062C0.523,-0.017 0.448,0.006 0.341,0.006C0.333,0.006 0.321,0.006 0.306,0.005C0.291,0.005 0.279,0.005 0.271,0.005C0.151,0.005 0.08,0.003 0.057,-0.002C0.048,-0.004 0.043,-0.009 0.043,-0.017C0.043,-0.052 0.045,-0.105 0.049,-0.175C0.053,-0.246 0.055,-0.299 0.055,-0.334C0.055,-0.372 0.053,-0.443 0.049,-0.547C0.048,-0.574 0.047,-0.614 0.044,-0.667L0.043,-0.674C0.043,-0.68 0.048,-0.684 0.059,-0.685C0.069,-0.686 0.107,-0.687 0.172,-0.687C0.276,-0.687 0.336,-0.687 0.354,-0.686C0.434,-0.683 0.493,-0.67 0.531,-0.647C0.582,-0.616 0.607,-0.564 0.607,-0.49C0.607,-0.471 0.601,-0.451 0.589,-0.429C0.581,-0.414 0.57,-0.399 0.556,-0.383C0.544,-0.37 0.538,-0.364 0.538,-0.365C0.538,-0.362 0.542,-0.359 0.551,-0.354C0.574,-0.341 0.591,-0.32 0.604,-0.292C0.616,-0.267 0.622,-0.24 0.622,-0.211ZM0.412,-0.486C0.412,-0.514 0.398,-0.532 0.37,-0.542C0.354,-0.546 0.329,-0.549 0.293,-0.549C0.258,-0.549 0.24,-0.546 0.24,-0.541C0.24,-0.535 0.24,-0.525 0.239,-0.513C0.237,-0.5 0.237,-0.491 0.237,-0.485C0.237,-0.452 0.24,-0.434 0.245,-0.43C0.249,-0.427 0.269,-0.426 0.307,-0.426C0.377,-0.426 0.412,-0.446 0.412,-0.486ZM0.427,-0.213C0.427,-0.242 0.415,-0.262 0.39,-0.272C0.375,-0.279 0.349,-0.282 0.314,-0.282C0.272,-0.282 0.249,-0.281 0.246,-0.278C0.242,-0.274 0.24,-0.255 0.24,-0.218C0.24,-0.179 0.242,-0.158 0.247,-0.154C0.251,-0.15 0.274,-0.148 0.317,-0.148C0.352,-0.148 0.377,-0.151 0.391,-0.156C0.415,-0.166 0.427,-0.185 0.427,-0.213Z"
                    style="fill-rule:nonzero;" />
            </g>
            <g transform="matrix(208.333,0,0,208.333,150.158,564.833)">
                <path
                    d="M0.723,-0.342C0.723,-0.24 0.691,-0.155 0.626,-0.086C0.56,-0.017 0.476,0.018 0.375,0.018C0.274,0.018 0.191,-0.017 0.125,-0.087C0.059,-0.156 0.027,-0.241 0.027,-0.342C0.027,-0.443 0.059,-0.528 0.125,-0.597C0.191,-0.668 0.274,-0.703 0.375,-0.703C0.475,-0.703 0.558,-0.668 0.625,-0.597C0.69,-0.528 0.723,-0.442 0.723,-0.342ZM0.538,-0.343C0.538,-0.392 0.523,-0.433 0.494,-0.467C0.463,-0.503 0.423,-0.521 0.375,-0.521C0.329,-0.521 0.29,-0.502 0.258,-0.465C0.227,-0.43 0.212,-0.388 0.212,-0.342C0.212,-0.292 0.226,-0.25 0.255,-0.217C0.286,-0.182 0.326,-0.165 0.375,-0.165C0.421,-0.165 0.46,-0.183 0.492,-0.22C0.523,-0.255 0.538,-0.296 0.538,-0.343Z"
                    style="fill-rule:nonzero;" />
            </g>
            <g transform="matrix(208.333,0,0,208.333,306.612,564.833)">
                <path
                    d="M0.584,-0.065C0.584,-0.033 0.583,-0.014 0.58,-0.008C0.576,-0.001 0.565,0.002 0.546,0.002C0.543,0.002 0.537,0.002 0.527,0.002C0.517,0.002 0.509,0.002 0.502,0.002C0.496,0.002 0.486,0.002 0.472,0.001C0.459,0 0.449,-0 0.443,-0C0.438,-0 0.414,-0.031 0.373,-0.094C0.331,-0.156 0.309,-0.188 0.308,-0.188C0.301,-0.182 0.277,-0.15 0.237,-0.089C0.199,-0.032 0.176,-0.002 0.17,-0C0.165,0.001 0.153,0.002 0.133,0.002C0.067,0.002 0.033,-0.001 0.033,-0.008C0.033,-0.015 0.033,-0.025 0.032,-0.038C0.031,-0.05 0.031,-0.06 0.031,-0.066C0.031,-0.106 0.033,-0.13 0.038,-0.137C0.038,-0.138 0.065,-0.173 0.119,-0.244C0.162,-0.301 0.184,-0.334 0.184,-0.342C0.184,-0.35 0.162,-0.383 0.119,-0.439C0.091,-0.474 0.064,-0.509 0.037,-0.544C0.034,-0.548 0.032,-0.555 0.032,-0.565C0.031,-0.572 0.031,-0.581 0.032,-0.593C0.033,-0.607 0.033,-0.615 0.033,-0.616C0.033,-0.623 0.033,-0.633 0.031,-0.646C0.03,-0.66 0.03,-0.67 0.03,-0.677C0.03,-0.683 0.035,-0.686 0.047,-0.686C0.054,-0.686 0.065,-0.686 0.08,-0.685C0.095,-0.684 0.106,-0.683 0.113,-0.683C0.119,-0.683 0.129,-0.683 0.142,-0.684C0.154,-0.685 0.164,-0.685 0.17,-0.685C0.175,-0.685 0.199,-0.653 0.241,-0.59C0.283,-0.527 0.305,-0.495 0.307,-0.495C0.314,-0.499 0.338,-0.532 0.379,-0.595C0.418,-0.655 0.441,-0.685 0.447,-0.685L0.563,-0.685C0.574,-0.685 0.58,-0.682 0.58,-0.677L0.58,-0.558C0.58,-0.55 0.555,-0.513 0.505,-0.447C0.454,-0.382 0.429,-0.347 0.429,-0.343C0.429,-0.338 0.451,-0.306 0.496,-0.247C0.548,-0.178 0.575,-0.142 0.577,-0.139C0.582,-0.132 0.584,-0.107 0.584,-0.065Z"
                    style="fill-rule:nonzero;" />
            </g>
        </g>
    </g>
</svg>
